<?xml version="1.0" encoding="UTF-8"?> <svg xmlns="http://www.w3.org/2000/svg" xmlns:xlink="http://www.w3.org/1999/xlink" width="276" height="68" viewBox="0 0 276 68"><defs><clipPath id="clip-path"><rect id="Rectangle_1" data-name="Rectangle 1" width="276" height="68" transform="translate(24 12)" fill="#fff" stroke="#707070" stroke-width="1"></rect></clipPath></defs><g id="Mask_Group_1" data-name="Mask Group 1" transform="translate(-24 -12)" clip-path="url(#clip-path)"><g id="Greenlink_Logo-01" data-name="Greenlink Logo-01" transform="translate(31.852 3.967)"><path id="Path_1" data-name="Path 1" d="M96.47,64.108H94.44v1.1h1.925v1.444H94.44v1.143h2.03v1.444H92.74V62.664H96.47Z" fill="#06a94e"></path><path id="Path_2" data-name="Path 2" d="M101.087,69.236V62.664H102.8l3.128,4.015V62.664h1.714v6.572h-1.714L102.8,65.221v4.015Z" fill="#06a94e"></path><path id="Path_3" data-name="Path 3" d="M116.29,64.108h-2.03v1.1h1.925v1.444H114.26v1.143h2.03v1.444h-3.729V62.664h3.729Z" fill="#06a94e"></path><path id="Path_4" data-name="Path 4" d="M123.569,62.664a2.09,2.09,0,0,1,1.609.586,2.12,2.12,0,0,1,.556,1.5,1.88,1.88,0,0,1-.526,1.368,1.834,1.834,0,0,1-.9.451l2.015,2.6h-2.075l-1.624-2.526v2.526h-1.714V62.664Zm-.947,3.008h.316a1.278,1.278,0,0,0,.827-.271.767.767,0,0,0,.226-.541.842.842,0,0,0-.226-.556,1.158,1.158,0,0,0-.827-.256h-.316Z" fill="#06a94e"></path><path id="Path_5" data-name="Path 5" d="M133.84,65.506h3.384a3.714,3.714,0,0,1-1.053,3.008,3.248,3.248,0,0,1-2.316.827,3.444,3.444,0,0,1-2.526-.977,3.4,3.4,0,0,1,2.556-5.8,3.624,3.624,0,0,1,1.775.451,3.143,3.143,0,0,1,1.158,1.353l-1.624.662a1.5,1.5,0,0,0-.466-.662,1.338,1.338,0,0,0-.917-.316,1.5,1.5,0,0,0-1.113.451,2.166,2.166,0,0,0-.571,1.5,2.045,2.045,0,0,0,.511,1.414,1.594,1.594,0,0,0,1.2.511,1.414,1.414,0,0,0,.947-.316,1.173,1.173,0,0,0,.406-.722H133.84Z" fill="#06a94e"></path><path id="Path_6" data-name="Path 6" d="M142.983,66.078l-2.376-3.414h2.045l1.248,1.79,1.188-1.79h2.06L144.7,66.078v3.158h-1.714Z" fill="#06a94e"></path><path id="Path_7" data-name="Path 7" d="M157.525,67.266a2.331,2.331,0,0,0,1.5.677.872.872,0,0,0,.662-.241.587.587,0,0,0,.165-.406.541.541,0,0,0-.2-.391,2.166,2.166,0,0,0-.842-.346l-.451-.135a2.075,2.075,0,0,1-.932-.541,1.594,1.594,0,0,1-.376-1.158,2.12,2.12,0,0,1,.6-1.5,2.271,2.271,0,0,1,1.684-.632,4.6,4.6,0,0,1,2.03.541l-.692,1.323a1.684,1.684,0,0,0-1.113-.436.8.8,0,0,0-.571.2.481.481,0,0,0,0,.647,1.038,1.038,0,0,0,.571.3l.526.15a2.587,2.587,0,0,1,1.188.647,1.5,1.5,0,0,1,.421,1.173,2.241,2.241,0,0,1-.617,1.654,2.511,2.511,0,0,1-1.94.677,3.459,3.459,0,0,1-1.293-.226,4.27,4.27,0,0,1-.993-.511Z" fill="#06a94e"></path><path id="Path_8" data-name="Path 8" d="M172.187,68.409a3.925,3.925,0,0,1-5.188,0,3.429,3.429,0,0,1,0-4.917,3.925,3.925,0,0,1,5.188,0,3.474,3.474,0,0,1,0,4.917m-3.925-3.744a1.79,1.79,0,0,0-.526,1.293,1.684,1.684,0,0,0,.526,1.218,1.865,1.865,0,0,0,1.323.526,1.8,1.8,0,0,0,1.323-.511,1.865,1.865,0,0,0,.526-1.263,1.8,1.8,0,0,0-.526-1.263,1.97,1.97,0,0,0-1.323-.526,1.85,1.85,0,0,0-1.323.526" fill="#06a94e"></path><path id="Path_9" data-name="Path 9" d="M179.541,62.664v5.128h2.045v1.444h-3.745V62.664Z" fill="#06a94e"></path><path id="Path_10" data-name="Path 10" d="M187.345,62.664v3.895a1.293,1.293,0,0,0,.331,1.008,1.188,1.188,0,0,0,.812.316,1.248,1.248,0,0,0,.782-.286,1.5,1.5,0,0,0,.391-1.188V62.664h1.7v3.775a2.647,2.647,0,0,1-.737,2.12,2.827,2.827,0,0,1-2.165.827,2.532,2.532,0,0,1-2.812-2.947V62.664Z" fill="#06a94e"></path><path id="Path_11" data-name="Path 11" d="M198.759,64.108v5.128h-1.7V64.108h-1.4V62.664h4.5v1.444Z" fill="#06a94e"></path><rect id="Rectangle_2" data-name="Rectangle 2" width="1.699" height="6.572" transform="translate(204.459 62.664)" fill="#06a94e"></rect><path id="Path_12" data-name="Path 12" d="M217,68.409a3.925,3.925,0,0,1-5.188,0,3.474,3.474,0,0,1,0-4.917,3.925,3.925,0,0,1,5.188,0,3.429,3.429,0,0,1,0,4.917m-3.925-3.744a1.85,1.85,0,0,0-.526,1.293,1.684,1.684,0,0,0,.526,1.218,1.865,1.865,0,0,0,1.323.526,1.8,1.8,0,0,0,1.865-1.775,1.759,1.759,0,0,0-.541-1.263,1.94,1.94,0,0,0-1.323-.526,1.88,1.88,0,0,0-1.323.526" fill="#06a94e"></path><path id="Path_13" data-name="Path 13" d="M222.655,69.236V62.664h1.7l3.143,4.015V62.664h1.7v6.572h-1.7l-3.143-4.015v4.015Z" fill="#06a94e"></path><path id="Path_14" data-name="Path 14" d="M234.6,67.266a2.3,2.3,0,0,0,1.5.677.857.857,0,0,0,.662-.241.545.545,0,0,0-.015-.8,2.165,2.165,0,0,0-.842-.346l-.451-.135a2.2,2.2,0,0,1-.947-.541,1.669,1.669,0,0,1-.376-1.158,2.12,2.12,0,0,1,.6-1.5,2.271,2.271,0,0,1,1.684-.632,4.512,4.512,0,0,1,2.03.541l-.677,1.323a1.714,1.714,0,0,0-1.128-.436.767.767,0,0,0-.556.2.451.451,0,0,0-.165.346.421.421,0,0,0,.09.3,1.038,1.038,0,0,0,.571.3l.511.15a2.556,2.556,0,0,1,1.2.647,1.5,1.5,0,0,1,.421,1.173,2.2,2.2,0,0,1-.632,1.654,2.5,2.5,0,0,1-1.94.677,3.429,3.429,0,0,1-1.278-.226,3.985,3.985,0,0,1-.993-.511Z" fill="#06a94e"></path><path id="Path_15" data-name="Path 15" d="M178.744,36.678a7.158,7.158,0,0,0-6.015,2.8V37.1h-6.767v6.812a9.534,9.534,0,0,0-2.677-4.812,10.406,10.406,0,0,0-7.278-2.572,10.632,10.632,0,0,0-7.76,2.752,9.594,9.594,0,0,0-2.692,5.564A9.79,9.79,0,0,0,142.7,39.1a12.094,12.094,0,0,0-15.1.211,8.752,8.752,0,0,0-1.654,2.241V36.889l-1.353-.075a7.519,7.519,0,0,0-3.519.752A6.151,6.151,0,0,0,118.4,40.2V37.1h-6.767v2.932h-14.3v5.715h6.015a5.008,5.008,0,0,1-1.744,3.128,6.015,6.015,0,0,1-4.06,1.323,6.677,6.677,0,0,1-5.173-2.166,8.873,8.873,0,0,1-2.241-6.105,9.534,9.534,0,0,1,2.451-6.481,6.842,6.842,0,0,1,4.827-1.94,5.88,5.88,0,0,1,3.94,1.4,6.737,6.737,0,0,1,2.03,2.827l6.993-2.872a13.76,13.76,0,0,0-5.1-5.8,16.422,16.422,0,0,0-18.6,2.241,14.767,14.767,0,0,0-4.226,10.6,14.2,14.2,0,0,0,4.06,10.2,14.587,14.587,0,0,0,10.843,4.2,13.534,13.534,0,0,0,14.286-12.557v12.3H118.4V47.942a5.715,5.715,0,0,1,1.5-4.316,4.511,4.511,0,0,1,3.008-1.023,6.361,6.361,0,0,1,2.331.406,11.038,11.038,0,0,0-.421,3.609,9.91,9.91,0,0,0,2.8,7.158,10.737,10.737,0,0,0,7.835,2.887,10.316,10.316,0,0,0,7.715-2.632,8.557,8.557,0,0,0,2.286-3.895h-6.481A3.128,3.128,0,0,1,137.78,51.4a5.339,5.339,0,0,1-2.2.511,3.8,3.8,0,0,1-2.8-.932,4.707,4.707,0,0,1-1.188-3.173h13.865a9.76,9.76,0,0,0,2.737,6.015,10.737,10.737,0,0,0,7.835,2.887,10.286,10.286,0,0,0,7.715-2.632,8.6,8.6,0,0,0,2.211-3.624v5.609h6.767v-10.2a4.376,4.376,0,0,1,1.1-3.008,3.8,3.8,0,0,1,2.511-.887,2.827,2.827,0,0,1,2.15.812,5.384,5.384,0,0,1,.857,3.684v9.564h6.767V44a6.527,6.527,0,0,0-1.775-5.293,7.654,7.654,0,0,0-5.594-2.03M131.81,43.926a3.82,3.82,0,0,1,1.008-2.03,3.669,3.669,0,0,1,2.767-1.023,3.925,3.925,0,0,1,2.8,1.023,4.677,4.677,0,0,1,1.1,2.03Zm21.58-2.03a3.639,3.639,0,0,1,2.752-1.023,3.925,3.925,0,0,1,2.8,1.023,4.391,4.391,0,0,1,1.1,2.03h-7.669a3.835,3.835,0,0,1,1.023-2.03m6.136,8.256a3.128,3.128,0,0,1-1.188,1.263,5.338,5.338,0,0,1-2.2.511,3.8,3.8,0,0,1-2.8-.932,4.707,4.707,0,0,1-1.188-3.173h13.775v2.331Z" fill="#01474f"></path><path id="Path_16" data-name="Path 16" d="M196.413,37.1H203.2V56.032h-6.782Z" fill="#01474f"></path><rect id="Rectangle_3" data-name="Rectangle 3" width="6.812" height="28.257" transform="translate(187.872 27.791)" fill="#01474f"></rect><path id="Path_17" data-name="Path 17" d="M217.226,36.678a7.158,7.158,0,0,0-6.015,2.8V37.1h-6.782V56.032h6.782V45.866a4.376,4.376,0,0,1,1.1-3.008,3.76,3.76,0,0,1,2.5-.887,2.872,2.872,0,0,1,2.165.812,5.444,5.444,0,0,1,.842,3.684v9.564H224.6V44a6.527,6.527,0,0,0-1.79-5.293,7.654,7.654,0,0,0-5.579-2.03" fill="#01474f"></path><path id="Path_18" data-name="Path 18" d="M239.242,45.836,248.19,37.1H239L232.6,43.926V27.791h-6.782V56.032H232.6V48.288l6.9,7.745h9.414Z" fill="#01474f"></path><rect id="Rectangle_4" data-name="Rectangle 4" width="6.737" height="4.587" transform="translate(196.459 29.806)" fill="#01474f"></rect><path id="Path_19" data-name="Path 19" d="M244.746,47.084v-1.7h-.632v-.361h1.669v.361h-.662v1.7Zm1.278,0v-2.06h.6L247,46.438l.376-1.414h.752v2.06h-.391V45.445l-.451,1.639h-.376l-.436-1.639v1.639Z" fill="#01474f"></path><path id="Path_20" data-name="Path 20" d="M69.582,24.287,50.273,10.256a11.549,11.549,0,0,0-13.625,0L17.324,24.287A14.166,14.166,0,0,0,11.5,35.7V37.6l9.8-7.113.331-.271L40.949,16.181a4.271,4.271,0,0,1,5.008,0L65.281,30.212a6.857,6.857,0,0,1,2.8,5.489v2.556H75.4V35.7a14.121,14.121,0,0,0-5.82-11.414" fill="#01474f"></path><path id="Path_21" data-name="Path 21" d="M40.287,60.634V66.86h7.444c7.444,0,13.715-5.444,17.008-12.031,0,0,.2-.6-.226,0-5.248,7.173-10.933,9.88-16.9,10.2V60.664A11.8,11.8,0,0,1,59.4,48.874h8.677v7.053a12.813,12.813,0,0,1-12.8,12.8H31.58a12.813,12.813,0,0,1-12.8-12.8V35.7a5.474,5.474,0,0,1,0-.857l-7.4,5.414V55.9a20.166,20.166,0,0,0,20.2,20.136h23.7A20.151,20.151,0,0,0,75.4,55.9V41.52h-16A19.129,19.129,0,0,0,40.287,60.634" fill="#06a94e"></path></g></g></svg> 